
        <svg xmlns="http://www.w3.org/2000/svg" xmlns:xlink="http://www.w3.org/1999/xlink" version="1.1" width="3162.3083859332733" 
        height="764.605375566585" viewBox="0 0 3162.3083859332733 764.605375566585">
			
			<g transform="scale(8.11541929666366) translate(10, 10)">
				<defs id="SvgjsDefs1016"></defs><g id="SvgjsG1017" featureKey="UFHKJ9-0" transform="matrix(3.1726782519576897,0,0,3.1726782519576897,-8.771846020584938,-17.443219075573076)" fill="#ff5722"><title xmlns="http://www.w3.org/2000/svg">data, seo, marketing, business, web, internet, website, optimization, technology, search, engine, co</title><path xmlns="http://www.w3.org/2000/svg" d="M27.86,20a5.25,5.25,0,0,1-4.09,2L14.5,22A1.5,1.5,0,0,0,13,23.48v3.27l1.08-1.62a.5.5,0,0,1,.83.55l-2,3h0a.49.49,0,0,1-.16.15h0a.45.45,0,0,1-.45,0l0,0a.49.49,0,0,1-.12-.11l0,0-2-3a.5.5,0,0,1,.83-.55L12,26.76V23.48a2.48,2.48,0,0,1,.74-1.78A2.43,2.43,0,0,1,14.51,21l9.26,0a4.26,4.26,0,0,0,3.32-1.58,4.3,4.3,0,0,0,.85-3.61,4.18,4.18,0,0,0-1.73-2.57A4.25,4.25,0,0,0,21.79,13a6.47,6.47,0,0,1-2.49,4.17.5.5,0,1,1-.6-.8,5.47,5.47,0,0,0,2.14-3.76v0a4.43,4.43,0,0,0,0-.6,5.36,5.36,0,0,0-3.5-5.12,5.56,5.56,0,0,0-5.11.66A5.48,5.48,0,0,0,10,12a.56.56,0,0,1-.15.49.52.52,0,0,1-.47.15,4.27,4.27,0,1,0-2.07,8.28l2.21,0a1.61,1.61,0,0,0,1.07-.44A1.49,1.49,0,0,0,11,19.41V16.15L9.92,17.78a.5.5,0,1,1-.83-.55l2-3,0,0a.48.48,0,0,1,.78,0l0,0,2,3a.5.5,0,1,1-.83.55L12,16.15v3.26a2.48,2.48,0,0,1-.74,1.77,2.63,2.63,0,0,1-1.78.73l-2.27,0H7.1A5.27,5.27,0,0,1,9,11.51,6.48,6.48,0,0,1,17.71,5.9a6.35,6.35,0,0,1,4.17,5.92,5.26,5.26,0,0,1,4.89.59,5.19,5.19,0,0,1,2.15,3.19A5.3,5.3,0,0,1,27.86,20Z"></path></g><g id="SvgjsG1018" featureKey="XAPJzK-0" transform="matrix(3.3019648935723325,0,0,3.3019648935723325,100.62258518215795,-5.6230831333876345)" fill="#303841"><path d="M2.86 12.719999999999999 l-1.62 0 c0.08 -2.5 1.74 -3.48 4.32 -3.48 c0.84 0 3.88 0.24 3.88 2.92 l0 6.02 c0 0.44 0.22 0.62 0.58 0.62 c0.16 0 0.38 -0.04 0.58 -0.08 l0 1.28 c-0.3 0.08 -0.56 0.2 -0.96 0.2 c-1.56 0 -1.8 -0.8 -1.86 -1.6 c-0.68 0.74 -1.74 1.7 -3.78 1.7 c-1.92 0 -3.28 -1.22 -3.28 -3.02 c0 -0.88 0.26 -2.92 3.18 -3.28 l2.9 -0.36 c0.42 -0.04 0.92 -0.2 0.92 -1.24 c0 -1.1 -0.8 -1.7 -2.46 -1.7 c-2 0 -2.28 1.22 -2.4 2.02 z M7.68 16.38 l0 -1.72 c-0.28 0.22 -0.72 0.38 -2.9 0.66 c-0.86 0.12 -2.24 0.38 -2.24 1.7 c0 1.14 0.58 1.82 1.9 1.82 c1.64 0 3.24 -1.06 3.24 -2.46 z M20.9 20 l-1.66 0 l0 -1.52 l-0.04 -0.04 c-0.74 1.22 -1.64 1.86 -3.32 1.86 c-1.54 0 -3.4 -0.74 -3.4 -3.24 l0 -7.52 l1.76 0 l0 6.94 c0 1.72 0.88 2.3 2.02 2.3 c2.22 0 2.88 -1.96 2.88 -3.48 l0 -5.76 l1.76 0 l0 10.46 z M27.380000000000003 11 l-1.68 0 l0 6.8 c0 0.82 0.7 0.82 1.06 0.82 l0.62 0 l0 1.38 c-0.64 0.06 -1.14 0.14 -1.32 0.14 c-1.74 0 -2.12 -0.98 -2.12 -2.24 l0 -6.9 l-1.42 0 l0 -1.46 l1.42 0 l0 -2.92 l1.76 0 l0 2.92 l1.68 0 l0 1.46 z M28.500000000000004 14.76 c0 -2.7 1.52 -5.52 4.86 -5.52 s4.86 2.82 4.86 5.52 s-1.52 5.52 -4.86 5.52 s-4.86 -2.82 -4.86 -5.52 z M30.320000000000004 14.76 c0 1.4 0.52 4 3.04 4 s3.04 -2.6 3.04 -4 s-0.52 -4 -3.04 -4 s-3.04 2.6 -3.04 4 z M41.74 20 l-1.66 0 l0 -14.36 l1.76 0 l0 5.22 l0.04 0 c0.76 -1.1 1.8 -1.6 3.02 -1.62 c2.78 0 4.36 2.28 4.36 5.22 c0 2.5 -1.04 5.84 -4.6 5.84 c-1.78 0 -2.52 -1.02 -2.88 -1.6 l-0.04 0 l0 1.3 z M47.44 14.74 c0 -1.34 -0.14 -3.92 -2.86 -3.92 c-2.54 0 -2.82 2.74 -2.82 4.44 c0 2.78 1.74 3.52 2.86 3.52 c1.92 0 2.82 -1.74 2.82 -4.04 z M52.900000000000006 12.719999999999999 l-1.62 0 c0.08 -2.5 1.74 -3.48 4.32 -3.48 c0.84 0 3.88 0.24 3.88 2.92 l0 6.02 c0 0.44 0.22 0.62 0.58 0.62 c0.16 0 0.38 -0.04 0.58 -0.08 l0 1.28 c-0.3 0.08 -0.56 0.2 -0.96 0.2 c-1.56 0 -1.8 -0.8 -1.86 -1.6 c-0.68 0.74 -1.74 1.7 -3.78 1.7 c-1.92 0 -3.28 -1.22 -3.28 -3.02 c0 -0.88 0.26 -2.92 3.18 -3.28 l2.9 -0.36 c0.42 -0.04 0.92 -0.2 0.92 -1.24 c0 -1.1 -0.8 -1.7 -2.46 -1.7 c-2 0 -2.28 1.22 -2.4 2.02 z M57.720000000000006 16.38 l0 -1.72 c-0.28 0.22 -0.72 0.38 -2.9 0.66 c-0.86 0.12 -2.24 0.38 -2.24 1.7 c0 1.14 0.58 1.82 1.9 1.82 c1.64 0 3.24 -1.06 3.24 -2.46 z M70.10000000000001 12.52 l-1.7 0 c-0.02 -0.66 -0.26 -1.76 -2.48 -1.76 c-0.54 0 -2.08 0.18 -2.08 1.48 c0 0.86 0.54 1.06 1.9 1.4 l1.76 0.44 c2.18 0.54 2.94 1.34 2.94 2.76 c0 2.16 -1.78 3.46 -4.14 3.46 c-4.14 0 -4.44 -2.4 -4.5 -3.66 l1.7 0 c0.06 0.82 0.3 2.14 2.78 2.14 c1.26 0 2.4 -0.5 2.4 -1.66 c0 -0.84 -0.58 -1.12 -2.08 -1.5 l-2.04 -0.5 c-1.46 -0.36 -2.42 -1.1 -2.42 -2.54 c0 -2.3 1.9 -3.34 3.96 -3.34 c3.74 0 4 2.76 4 3.28 z M79.58000000000001 16.72 l1.76 0 c-0.06 0.5 -0.54 1.98 -1.86 2.86 c-0.48 0.32 -1.16 0.72 -2.84 0.72 c-2.94 0 -4.68 -2.22 -4.68 -5.24 c0 -3.24 1.56 -5.82 5.02 -5.82 c3.02 0 4.5 2.4 4.5 6.1 l-7.64 0 c0 2.18 1.02 3.44 3.04 3.44 c1.66 0 2.64 -1.28 2.7 -2.06 z M73.84000000000002 13.940000000000001 l5.82 0 c-0.1 -1.62 -0.78 -3.12 -2.92 -3.12 c-1.62 0 -2.9 1.5 -2.9 3.12 z"></path></g>
			</g>
		</svg>
	