<svg id="Capa_1" enable-background="new 0 0 512 512" height="512" viewBox="0 0 512 512" width="512" xmlns="http://www.w3.org/2000/svg"><g><circle cx="256" cy="256" r="256"/><g fill="#fff"><path d="m422.177 314.244c-.207-.628-.48-1.195-.809-1.71-1.998-3.785-6.852-4.917-14.484-3.339-23.772 4.905-32.976 1.886-36.314-.274 19.296-29.449 35.155-65.018 43.725-98.198 3.902-15.107 11.476-50.664 1.757-68.031-.642-1.213-1.36-2.346-2.169-3.38-18.54-23.69-45.748-36.396-78.686-36.746-21.503-.21-39.835 4.978-44.803 6.894-2.411-.451-4.885-.843-7.418-1.173-5.909-1.076-12.185-1.728-18.855-1.837-16.998-.27-31.687 3.796-43.851 12.086-12.328-4.619-68.853-23.652-103.835 1.132-19.537 13.841-28.557 38.582-26.809 73.535.588 11.761 7.288 47.937 17.862 82.583 6.612 21.66 13.497 38.847 20.61 51.502 7.951 14.295 16.188 22.908 24.648 25.731 6.431 2.144 16.287 2.07 26.716-10.466 11.52-13.854 22.866-26.252 27.959-31.732 6.256 3.386 13.033 5.212 19.986 5.423.002.02.003.04.005.06-1.411 1.673-2.568 3.139-3.555 4.391-4.872 6.185-5.886 7.472-21.569 10.702-4.461.92-16.31 3.362-16.483 11.668-.037 1.761.473 3.322 1.323 4.7 3.264 6.081 13.249 8.763 14.591 9.099 19.19 4.8 36.008 1.328 48.475-9.756-.245 32.076 1.115 63.512 4.967 73.147 3.181 7.95 10.952 27.383 35.5 27.38 3.601-.001 7.568-.419 11.93-1.354 25.62-5.492 36.746-16.815 41.05-41.78 2.161-12.519 5.774-41.342 7.747-58.968.242-1.011.513-1.735.819-1.958.01-.007 1.001-.676 6.142.441.21.046.423.078.637.097l3.65.321c.071.006.143.01.215.014 12.18.554 27.483-2.052 36.393-6.194 9.255-4.298 25.961-14.843 22.933-24.01zm-304.648-40.925c-10.69-35.021-16.936-70.238-17.43-80.113-1.561-31.22 5.996-52.953 22.463-64.596 26.408-18.672 69.586-7.776 87.821-1.869-.046.046-.095.089-.141.135-29.098 29.389-28.408 79.597-28.337 82.666-.003 1.184.096 2.861.233 5.167.5 8.444 1.432 24.161-1.057 41.961-2.313 16.54 2.785 32.729 13.986 44.416 1.16 1.21 2.37 2.346 3.621 3.415-4.986 5.339-15.822 17.147-27.355 31.022-8.161 9.811-13.798 7.933-15.652 7.314-5.636-1.88-11.694-8.445-17.808-19.024-6.891-12.063-13.847-29.207-20.344-50.494zm86.372 73.142c-2.461-.615-4.703-1.628-6.215-2.548 1.279-.566 3.414-1.296 6.949-2.025 18.452-3.799 21.3-6.48 27.524-14.381 1.426-1.811 3.043-3.863 5.28-6.363.489-.546.844-1.184 1.059-1.866 2.455-2.173 3.917-1.58 6.281-.6 2.242.929 4.426 3.739 5.312 6.832.418 1.461.89 4.234-.65 6.39-12.998 18.202-31.938 17.967-45.54 14.561zm30.107-57.339-.755 2.029c-1.912 5.126-3.69 9.893-4.793 14.419-9.597-.029-18.933-4.129-26.033-11.538-9.027-9.419-13.127-22.522-11.25-35.95 2.629-18.804 1.658-35.179 1.137-43.977-.073-1.231-.137-2.31-.176-3.162 4.251-3.768 23.953-14.326 37.999-11.105 6.411 1.469 10.317 5.834 11.941 13.343 8.406 38.875 1.113 55.078-4.747 68.098-1.207 2.685-2.348 5.219-3.323 7.843zm105.876 65.745c-.243 2.541-.515 5.405-.888 8.567l-2.099 6.303c-.166.499-.254 1.022-.261 1.548-.085 6.826-.777 9.329-1.653 12.499-.911 3.295-1.945 7.032-2.58 15.204-1.582 20.335-12.626 32.015-34.755 36.758-21.791 4.675-25.654-7.143-29.061-17.565-.378-1.155-.735-2.246-1.107-3.259-3.097-8.424-2.747-20.3-2.263-36.738.238-8.07-.358-27.337-4.747-38.047.063-4.215.152-8.496.273-12.823.016-.564-.065-1.108-.22-1.62-.135-.986-.343-1.984-.631-2.99-1.763-6.158-6.057-11.309-11.21-13.445-2.047-.848-5.806-2.404-10.32-1.25.963-3.967 2.633-8.445 4.442-13.296l.761-2.044c.855-2.3 1.928-4.683 3.063-7.206 6.132-13.624 14.53-32.283 5.415-74.437-3.415-15.788-14.819-23.499-32.099-21.708-10.362 1.073-19.841 5.254-24.569 7.65-1.016.515-1.947 1.013-2.815 1.497 1.319-15.909 6.306-45.638 24.955-64.448 1.397-1.409 2.854-2.727 4.36-3.966.743-.149 1.458-.453 2.082-.926 10.818-8.204 24.368-12.234 40.287-11.971 5.881.096 11.527.488 16.883 1.165 27.879 5.096 46.641 20.802 58.028 34.259 11.708 13.836 18.048 27.772 20.578 35.288-19.027-1.935-31.969 1.822-38.528 11.2-14.272 20.401 7.808 59.997 18.419 79.027 1.946 3.489 3.626 6.501 4.154 7.782 3.455 8.376 7.929 13.967 11.197 18.049 1.001 1.25 1.972 2.463 2.711 3.521-5.764 1.662-16.115 5.501-15.172 24.687-.177 2.248-.608 6.425-1.2 11.716-.663 2.988-1.01 6.619-1.43 11.019zm12.803-23.31c-.582-11.956 3.87-13.206 8.579-14.529.664-.186 1.311-.373 1.942-.584.564.5 1.197.998 1.93 1.481 8.2 5.414 22.75 6.057 43.233 1.932-2.899 2.544-7.461 5.743-13.707 8.644-5.893 2.735-15.755 4.786-25.122 5.226-10.353.49-15.615-1.159-16.855-2.17zm8.189-133.3c-.085 5.044-.779 9.623-1.515 14.403-.792 5.142-1.611 10.458-1.817 16.911-.204 6.28.581 12.81 1.339 19.124 1.533 12.754 3.106 25.884-2.983 38.84-.947-1.68-1.859-3.514-2.697-5.545-.757-1.835-2.4-4.781-4.675-8.86-8.852-15.874-29.581-53.049-18.969-68.218 5.457-7.801 19.278-8.139 31.317-6.655zm3.284 100.842c-.398-.507-.805-1.019-1.225-1.543-.168-.21-.339-.424-.512-.64 10.442-17.246 8.4-34.309 6.582-49.438-.747-6.208-1.451-12.072-1.272-17.579.186-5.839.958-10.846 1.704-15.687.919-5.967 1.852-12.14 1.594-19.418.192-.763.27-1.665.169-2.735-.657-6.98-8.625-27.865-24.866-46.771-8.735-10.168-21.414-21.524-38.654-29.321 7.551-1.531 17.724-2.925 29.099-2.676 29.497.656 52.833 11.697 69.363 32.816.341.436.659.924.961 1.442 10.397 19.49-3.971 90.223-42.943 151.55z"/><path d="m228.605 205.143c-3.707-.517-7.065-.039-8.763 1.247-.956.724-1.251 1.562-1.331 2.139-.213 1.529.858 3.219 1.516 4.091 1.861 2.468 4.581 4.164 7.274 4.537.39.054.778.08 1.164.08 4.49 0 8.571-3.495 8.931-6.075.448-3.233-4.242-5.386-8.791-6.019z"/><path d="m342.281 202.585c-4.271.595-8.413 2.523-8.067 5.061.278 1.974 3.842 5.344 8.062 5.344.355 0 .716-.024 1.078-.075 2.816-.39 4.883-2.178 5.865-3.209 1.496-1.571 2.36-3.322 2.202-4.461h-.001c-.353-2.533-4.862-3.257-9.139-2.66z"/></g></g></svg>