<svg width="1200" height="800" viewBox="0 0 1200 800" fill="none" xmlns="http://www.w3.org/2000/svg">
<g clip-path="url(#clip0_143_67)">
<path d="M429.69 225.636H453.497L481.963 277.114H483.099L511.565 225.636H535.372L493.043 298.591V342H472.02V298.591L429.69 225.636ZM571.21 343.705C562.688 343.705 555.301 341.83 549.051 338.08C542.801 334.33 537.953 329.083 534.506 322.341C531.097 315.598 529.392 307.72 529.392 298.705C529.392 289.689 531.097 281.792 534.506 275.011C537.953 268.231 542.801 262.966 549.051 259.216C555.301 255.466 562.688 253.591 571.21 253.591C579.733 253.591 587.119 255.466 593.369 259.216C599.619 262.966 604.449 268.231 607.858 275.011C611.305 281.792 613.028 289.689 613.028 298.705C613.028 307.72 611.305 315.598 607.858 322.341C604.449 329.083 599.619 334.33 593.369 338.08C587.119 341.83 579.733 343.705 571.21 343.705ZM571.324 327.227C575.945 327.227 579.809 325.958 582.915 323.42C586.021 320.845 588.331 317.398 589.847 313.08C591.4 308.761 592.176 303.951 592.176 298.648C592.176 293.307 591.4 288.477 589.847 284.159C588.331 279.803 586.021 276.337 582.915 273.761C579.809 271.186 575.945 269.898 571.324 269.898C566.589 269.898 562.65 271.186 559.506 273.761C556.4 276.337 554.07 279.803 552.517 284.159C551.002 288.477 550.244 293.307 550.244 298.648C550.244 303.951 551.002 308.761 552.517 313.08C554.07 317.398 556.4 320.845 559.506 323.42C562.65 325.958 566.589 327.227 571.324 327.227ZM686.111 305.295V254.727H706.679V342H686.736V326.489H685.827C683.857 331.375 680.618 335.371 676.111 338.477C671.641 341.583 666.13 343.136 659.577 343.136C653.857 343.136 648.8 341.867 644.406 339.33C640.05 336.754 636.641 333.023 634.179 328.136C631.717 323.212 630.486 317.265 630.486 310.295V254.727H651.054V307.114C651.054 312.644 652.569 317.038 655.599 320.295C658.63 323.553 662.607 325.182 667.531 325.182C670.562 325.182 673.497 324.443 676.338 322.966C679.179 321.489 681.509 319.292 683.327 316.375C685.183 313.42 686.111 309.727 686.111 305.295ZM727.83 342V254.727H747.773V269.273H748.682C750.273 264.235 753 260.352 756.864 257.625C760.765 254.86 765.216 253.477 770.216 253.477C771.352 253.477 772.621 253.534 774.023 253.648C775.462 253.723 776.655 253.856 777.602 254.045V272.966C776.731 272.663 775.349 272.398 773.455 272.17C771.599 271.905 769.799 271.773 768.057 271.773C764.307 271.773 760.936 272.587 757.943 274.216C754.989 275.807 752.659 278.023 750.955 280.864C749.25 283.705 748.398 286.981 748.398 290.693V342H727.83ZM935.841 283.818C935.841 296.356 933.492 307.095 928.795 316.034C924.136 324.936 917.773 331.754 909.705 336.489C901.674 341.223 892.564 343.591 882.375 343.591C872.186 343.591 863.057 341.223 854.989 336.489C846.958 331.716 840.595 324.879 835.898 315.977C831.239 307.038 828.909 296.318 828.909 283.818C828.909 271.28 831.239 260.561 835.898 251.659C840.595 242.72 846.958 235.883 854.989 231.148C863.057 226.413 872.186 224.045 882.375 224.045C892.564 224.045 901.674 226.413 909.705 231.148C917.773 235.883 924.136 242.72 928.795 251.659C933.492 260.561 935.841 271.28 935.841 283.818ZM914.648 283.818C914.648 274.992 913.265 267.549 910.5 261.489C907.773 255.39 903.985 250.788 899.136 247.682C894.288 244.538 888.701 242.966 882.375 242.966C876.049 242.966 870.462 244.538 865.614 247.682C860.765 250.788 856.958 255.39 854.193 261.489C851.466 267.549 850.102 274.992 850.102 283.818C850.102 292.644 851.466 300.106 854.193 306.205C856.958 312.265 860.765 316.867 865.614 320.011C870.462 323.117 876.049 324.67 882.375 324.67C888.701 324.67 894.288 323.117 899.136 320.011C903.985 316.867 907.773 312.265 910.5 306.205C913.265 300.106 914.648 292.644 914.648 283.818ZM972.872 342L948.213 254.727H969.179L984.52 316.091H985.315L1001 254.727H1021.74L1037.42 315.75H1038.27L1053.38 254.727H1074.41L1049.69 342H1028.27L1011.91 283.023H1010.71L994.349 342H972.872ZM1109.34 290.864V342H1088.77V254.727H1108.43V269.557H1109.45C1111.46 264.67 1114.66 260.788 1119.05 257.909C1123.48 255.03 1128.96 253.591 1135.47 253.591C1141.49 253.591 1146.74 254.879 1151.21 257.455C1155.72 260.03 1159.2 263.761 1161.66 268.648C1164.16 273.534 1165.4 279.462 1165.36 286.432V342H1144.79V289.614C1144.79 283.78 1143.27 279.216 1140.24 275.92C1137.25 272.625 1133.1 270.977 1127.8 270.977C1124.2 270.977 1121 271.773 1118.2 273.364C1115.43 274.917 1113.26 277.17 1111.66 280.125C1110.11 283.08 1109.34 286.659 1109.34 290.864Z" fill="#5F6368"/>
<path d="M437.801 419.636H463.597L498.142 503.955H499.506L534.051 419.636H559.847V536H539.619V456.057H538.54L506.381 535.659H491.267L459.108 455.886H458.028V536H437.801V419.636ZM607.006 537.761C601.475 537.761 596.494 536.777 592.063 534.807C587.669 532.799 584.184 529.845 581.608 525.943C579.07 522.042 577.801 517.231 577.801 511.511C577.801 506.587 578.71 502.515 580.528 499.295C582.347 496.076 584.828 493.5 587.972 491.568C591.116 489.636 594.657 488.178 598.597 487.193C602.574 486.17 606.684 485.432 610.926 484.977C616.04 484.447 620.188 483.973 623.369 483.557C626.551 483.102 628.862 482.42 630.301 481.511C631.778 480.564 632.517 479.106 632.517 477.136V476.795C632.517 472.515 631.248 469.201 628.71 466.852C626.172 464.504 622.517 463.33 617.744 463.33C612.706 463.33 608.71 464.428 605.756 466.625C602.839 468.822 600.869 471.417 599.847 474.409L580.642 471.682C582.157 466.379 584.657 461.947 588.142 458.386C591.627 454.788 595.888 452.098 600.926 450.318C605.964 448.5 611.532 447.591 617.631 447.591C621.835 447.591 626.021 448.083 630.188 449.068C634.354 450.053 638.161 451.682 641.608 453.955C645.055 456.189 647.82 459.239 649.903 463.102C652.025 466.966 653.085 471.795 653.085 477.591V536H633.313V524.011H632.631C631.381 526.436 629.619 528.708 627.347 530.83C625.112 532.913 622.29 534.598 618.881 535.886C615.509 537.136 611.551 537.761 607.006 537.761ZM612.347 522.648C616.475 522.648 620.055 521.833 623.085 520.205C626.116 518.538 628.445 516.341 630.074 513.614C631.741 510.886 632.574 507.913 632.574 504.693V494.409C631.93 494.939 630.831 495.432 629.278 495.886C627.763 496.341 626.059 496.739 624.165 497.08C622.271 497.42 620.396 497.723 618.54 497.989C616.684 498.254 615.074 498.481 613.71 498.67C610.642 499.087 607.896 499.769 605.472 500.716C603.047 501.663 601.134 502.989 599.733 504.693C598.331 506.36 597.631 508.519 597.631 511.17C597.631 514.958 599.013 517.818 601.778 519.75C604.544 521.682 608.066 522.648 612.347 522.648ZM711.835 537.705C703.123 537.705 695.642 535.792 689.392 531.966C683.18 528.14 678.388 522.856 675.017 516.114C671.684 509.333 670.017 501.53 670.017 492.705C670.017 483.841 671.722 476.019 675.131 469.239C678.54 462.42 683.35 457.117 689.563 453.33C695.813 449.504 703.199 447.591 711.722 447.591C718.805 447.591 725.074 448.898 730.528 451.511C736.021 454.087 740.396 457.742 743.653 462.477C746.911 467.174 748.767 472.667 749.222 478.955H729.563C728.767 474.75 726.873 471.246 723.881 468.443C720.926 465.602 716.968 464.182 712.006 464.182C707.801 464.182 704.108 465.318 700.926 467.591C697.744 469.826 695.263 473.045 693.483 477.25C691.741 481.455 690.869 486.492 690.869 492.364C690.869 498.311 691.741 503.424 693.483 507.705C695.225 511.947 697.669 515.223 700.813 517.534C703.994 519.807 707.725 520.943 712.006 520.943C715.036 520.943 717.744 520.375 720.131 519.239C722.555 518.064 724.581 516.379 726.21 514.182C727.839 511.985 728.956 509.314 729.563 506.17H749.222C748.729 512.345 746.911 517.818 743.767 522.591C740.623 527.326 736.343 531.038 730.926 533.727C725.509 536.379 719.146 537.705 711.835 537.705ZM786.679 484.864V536H766.111V419.636H786.224V463.557H787.247C789.293 458.633 792.456 454.75 796.736 451.909C801.054 449.03 806.546 447.591 813.213 447.591C819.274 447.591 824.558 448.86 829.065 451.398C833.573 453.936 837.058 457.648 839.52 462.534C842.02 467.42 843.27 473.386 843.27 480.432V536H822.702V483.614C822.702 477.742 821.187 473.178 818.156 469.92C815.164 466.625 810.959 464.977 805.543 464.977C801.906 464.977 798.649 465.773 795.77 467.364C792.929 468.917 790.694 471.17 789.065 474.125C787.474 477.08 786.679 480.659 786.679 484.864ZM864.236 536V448.727H884.804V536H864.236ZM874.577 436.341C871.319 436.341 868.516 435.261 866.168 433.102C863.819 430.905 862.645 428.273 862.645 425.205C862.645 422.098 863.819 419.466 866.168 417.307C868.516 415.11 871.319 414.011 874.577 414.011C877.872 414.011 880.675 415.11 882.986 417.307C885.334 419.466 886.509 422.098 886.509 425.205C886.509 428.273 885.334 430.905 882.986 433.102C880.675 435.261 877.872 436.341 874.577 436.341ZM926.523 484.864V536H905.955V448.727H925.614V463.557H926.636C928.644 458.67 931.845 454.788 936.239 451.909C940.67 449.03 946.144 447.591 952.659 447.591C958.682 447.591 963.928 448.879 968.398 451.455C972.905 454.03 976.39 457.761 978.852 462.648C981.352 467.534 982.583 473.462 982.545 480.432V536H961.977V483.614C961.977 477.78 960.462 473.216 957.432 469.92C954.439 466.625 950.292 464.977 944.989 464.977C941.39 464.977 938.189 465.773 935.386 467.364C932.621 468.917 930.443 471.17 928.852 474.125C927.299 477.08 926.523 480.659 926.523 484.864ZM1042.09 537.705C1033.34 537.705 1025.78 535.886 1019.42 532.25C1013.09 528.576 1008.23 523.386 1004.82 516.682C1001.41 509.939 999.705 502.004 999.705 492.875C999.705 483.898 1001.41 476.019 1004.82 469.239C1008.27 462.42 1013.08 457.117 1019.25 453.33C1025.42 449.504 1032.68 447.591 1041.01 447.591C1046.39 447.591 1051.47 448.462 1056.24 450.205C1061.05 451.909 1065.29 454.561 1068.97 458.159C1072.68 461.758 1075.59 466.341 1077.72 471.909C1079.84 477.439 1080.9 484.03 1080.9 491.682V497.989H1009.36V484.125H1061.18C1061.14 480.186 1060.29 476.682 1058.62 473.614C1056.96 470.508 1054.63 468.064 1051.64 466.284C1048.68 464.504 1045.23 463.614 1041.3 463.614C1037.09 463.614 1033.4 464.636 1030.22 466.682C1027.03 468.689 1024.55 471.341 1022.77 474.636C1021.03 477.894 1020.14 481.473 1020.1 485.375V497.477C1020.1 502.553 1021.03 506.909 1022.89 510.545C1024.74 514.144 1027.34 516.909 1030.67 518.841C1034 520.735 1037.91 521.682 1042.37 521.682C1045.37 521.682 1048.08 521.265 1050.5 520.432C1052.92 519.561 1055.03 518.292 1056.81 516.625C1058.59 514.958 1059.93 512.894 1060.84 510.432L1080.05 512.591C1078.83 517.667 1076.52 522.098 1073.11 525.886C1069.74 529.636 1065.42 532.553 1060.16 534.636C1054.89 536.682 1048.87 537.705 1042.09 537.705ZM1167.28 471.795L1148.53 473.841C1148 471.947 1147.07 470.167 1145.74 468.5C1144.45 466.833 1142.71 465.489 1140.51 464.466C1138.32 463.443 1135.63 462.932 1132.45 462.932C1128.17 462.932 1124.57 463.86 1121.65 465.716C1118.77 467.572 1117.35 469.977 1117.39 472.932C1117.35 475.47 1118.28 477.534 1120.17 479.125C1122.11 480.716 1125.29 482.023 1129.72 483.045L1144.61 486.227C1152.86 488.008 1159 490.83 1163.01 494.693C1167.07 498.557 1169.11 503.614 1169.15 509.864C1169.11 515.356 1167.5 520.205 1164.32 524.409C1161.18 528.576 1156.8 531.833 1151.2 534.182C1145.59 536.53 1139.15 537.705 1131.88 537.705C1121.2 537.705 1112.6 535.47 1106.08 531C1099.57 526.492 1095.68 520.223 1094.43 512.193L1114.49 510.261C1115.4 514.201 1117.33 517.174 1120.29 519.182C1123.24 521.189 1127.09 522.193 1131.82 522.193C1136.71 522.193 1140.63 521.189 1143.58 519.182C1146.57 517.174 1148.07 514.693 1148.07 511.739C1148.07 509.239 1147.11 507.174 1145.17 505.545C1143.28 503.917 1140.32 502.667 1136.31 501.795L1121.42 498.67C1113.05 496.928 1106.86 493.992 1102.84 489.864C1098.83 485.697 1096.84 480.432 1096.88 474.068C1096.84 468.689 1098.3 464.03 1101.25 460.091C1104.25 456.114 1108.39 453.045 1113.7 450.886C1119.04 448.689 1125.19 447.591 1132.16 447.591C1142.39 447.591 1150.44 449.769 1156.31 454.125C1162.22 458.481 1165.87 464.371 1167.28 471.795Z" fill="#3367D6"/>
<g clip-path="url(#clip1_143_67)">
<path d="M184.211 332.75C180.222 332.75 176.984 335.988 176.984 339.977C176.984 343.966 180.222 347.203 184.211 347.203C188.2 347.203 191.437 343.966 191.437 339.977C191.437 335.988 188.2 332.75 184.211 332.75Z" fill="#5F6368"/>
<path d="M184.211 419.469C180.222 419.469 176.984 422.706 176.984 426.695C176.984 430.684 180.222 433.922 184.211 433.922C188.2 433.922 191.437 430.684 191.437 426.695C191.437 422.706 188.2 419.469 184.211 419.469Z" fill="#5F6368"/>
<path d="M184.211 506.187C180.222 506.187 176.984 509.425 176.984 513.414C176.984 517.403 180.222 520.641 184.211 520.641C188.2 520.641 191.437 517.403 191.437 513.414C191.437 509.425 188.2 506.187 184.211 506.187Z" fill="#5F6368"/>
<path d="M322.961 318.297C311.007 318.297 301.281 328.022 301.281 339.977C301.281 351.931 311.007 361.656 322.961 361.656C334.915 361.656 344.641 351.931 344.641 339.977C344.641 328.022 334.915 318.297 322.961 318.297ZM322.961 347.203C318.976 347.203 315.734 343.961 315.734 339.977C315.734 335.992 318.976 332.75 322.961 332.75C326.946 332.75 330.188 335.992 330.188 339.977C330.188 343.961 326.946 347.203 322.961 347.203Z" fill="#5F6368"/>
<path d="M97.4922 332.75H68.5859C64.5954 332.75 61.3594 335.985 61.3594 339.977C61.3594 343.968 64.5954 347.203 68.5859 347.203H97.4922C101.483 347.203 104.719 343.968 104.719 339.977C104.719 335.985 101.483 332.75 97.4922 332.75Z" fill="#5F6368"/>
<path d="M155.305 332.75H126.398C122.408 332.75 119.172 335.985 119.172 339.977C119.172 343.968 122.408 347.203 126.398 347.203H155.305C159.295 347.203 162.531 343.968 162.531 339.977C162.531 335.985 159.295 332.75 155.305 332.75Z" fill="#5F6368"/>
<path d="M322.961 405.016C311.007 405.016 301.281 414.741 301.281 426.695C301.281 438.649 311.007 448.375 322.961 448.375C334.915 448.375 344.641 438.649 344.641 426.695C344.641 414.741 334.915 405.016 322.961 405.016ZM322.961 433.922C318.976 433.922 315.734 430.68 315.734 426.695C315.734 422.711 318.976 419.469 322.961 419.469C326.946 419.469 330.188 422.711 330.188 426.695C330.188 430.68 326.946 433.922 322.961 433.922Z" fill="#5F6368"/>
<path d="M97.4922 419.469H68.5859C64.5954 419.469 61.3594 422.704 61.3594 426.695C61.3594 430.687 64.5954 433.922 68.5859 433.922H97.4922C101.483 433.922 104.719 430.687 104.719 426.695C104.719 422.704 101.483 419.469 97.4922 419.469Z" fill="#5F6368"/>
<path d="M155.305 419.469H126.398C122.408 419.469 119.172 422.704 119.172 426.695C119.172 430.687 122.408 433.922 126.398 433.922H155.305C159.295 433.922 162.531 430.687 162.531 426.695C162.531 422.704 159.295 419.469 155.305 419.469Z" fill="#5F6368"/>
<path d="M322.961 491.734C311.007 491.734 301.281 501.46 301.281 513.414C301.281 525.368 311.007 535.094 322.961 535.094C334.915 535.094 344.641 525.368 344.641 513.414C344.641 501.46 334.915 491.734 322.961 491.734ZM322.961 520.641C318.976 520.641 315.734 517.399 315.734 513.414C315.734 509.429 318.976 506.188 322.961 506.188C326.946 506.188 330.188 509.429 330.188 513.414C330.188 517.399 326.946 520.641 322.961 520.641Z" fill="#5F6368"/>
<path d="M388 306.85C388 299.277 386.276 291.533 382.74 284.385L348.014 206.283C347.969 206.183 347.923 206.085 347.875 205.987C344.176 198.593 336.746 194 328.482 194H77.518C69.2544 194 61.824 198.593 58.1255 205.987C58.0771 206.084 58.0301 206.183 57.986 206.283L23.2602 284.385C19.8962 291.185 18 298.893 18 306.85V368.883C18 374.431 20.0971 379.497 23.5384 383.336C20.0971 387.175 18 392.241 18 397.789V455.602C18 461.15 20.0971 466.216 23.5384 470.055C20.0971 473.893 18 478.959 18 484.508V542.32C18 554.274 27.7255 564 39.6797 564H366.32C378.274 564 388 554.274 388 542.32V484.508C388 478.959 385.903 473.893 382.462 470.055C385.902 466.216 388 461.15 388 455.602V397.789C388 392.241 385.903 387.175 382.462 383.336C385.902 379.497 388 374.431 388 368.883V306.85ZM71.1145 212.33C72.3676 209.935 74.8087 208.453 77.518 208.453H328.482C331.191 208.453 333.632 209.935 334.885 212.33L369.148 289.391H36.8519L71.1145 212.33ZM373.547 542.32C373.547 546.305 370.305 549.547 366.32 549.547H39.6797C35.695 549.547 32.4531 546.305 32.4531 542.32V484.508C32.4531 480.523 35.695 477.281 39.6797 477.281H366.32C370.305 477.281 373.547 480.523 373.547 484.508V542.32ZM373.547 455.602C373.547 459.586 370.305 462.828 366.32 462.828H39.6797C35.695 462.828 32.4531 459.586 32.4531 455.602V397.789C32.4531 393.804 35.695 390.562 39.6797 390.562H366.32C370.305 390.562 373.547 393.804 373.547 397.789V455.602ZM373.547 368.883C373.547 372.868 370.305 376.109 366.32 376.109H39.6797C35.695 376.109 32.4531 372.868 32.4531 368.883V306.85C32.4531 305.845 32.5102 304.842 32.594 303.844H373.406C373.49 304.842 373.547 305.845 373.547 306.85V368.883Z" fill="#5F6368"/>
<path d="M97.4922 506.187H68.5859C64.5954 506.187 61.3594 509.423 61.3594 513.414C61.3594 517.405 64.5954 520.641 68.5859 520.641H97.4922C101.483 520.641 104.719 517.405 104.719 513.414C104.719 509.423 101.483 506.187 97.4922 506.187Z" fill="#5F6368"/>
<path d="M155.305 506.187H126.398C122.408 506.187 119.172 509.423 119.172 513.414C119.172 517.405 122.408 520.641 126.398 520.641H155.305C159.295 520.641 162.531 517.405 162.531 513.414C162.531 509.423 159.295 506.187 155.305 506.187Z" fill="#5F6368"/>
</g>
</g>
<defs>
<clipPath id="clip0_143_67">
<rect width="1200" height="800" fill="white"/>
</clipPath>
<clipPath id="clip1_143_67">
<rect width="370" height="370" fill="white" transform="translate(18 194)"/>
</clipPath>
</defs>
</svg>
